<?xml version="1.0" encoding="iso-8859-1"?>
<!-- Uploaded to: SVG Repo, www.svgrepo.com, Generator: SVG Repo Mixer Tools -->
<!DOCTYPE svg PUBLIC "-//W3C//DTD SVG 1.1//EN" "http://www.w3.org/Graphics/SVG/1.1/DTD/svg11.dtd">
<svg fill="#000000" height="800px" width="800px" version="1.1" id="Capa_1" xmlns="http://www.w3.org/2000/svg" xmlns:xlink="http://www.w3.org/1999/xlink" 
	 viewBox="0 0 457.02 457.02" xml:space="preserve">
<g>
	<path d="M162.354,257.426c-4.975,4.974-7.714,11.587-7.714,18.622c0,7.034,2.739,13.648,7.713,18.622s11.588,7.713,18.622,7.713
		c7.035,0,13.648-2.739,18.622-7.713s7.713-11.588,7.713-18.622c0-7.035-2.739-13.648-7.713-18.622
		c-4.974-4.975-11.587-7.714-18.622-7.714C173.942,249.713,167.328,252.452,162.354,257.426z M199.311,276.048
		c0,4.897-1.907,9.502-5.371,12.965c-3.463,3.463-8.067,5.37-12.965,5.37c-4.897,0-9.502-1.907-12.965-5.371
		c-3.463-3.463-5.371-8.067-5.371-12.965c0-4.898,1.907-9.502,5.371-12.965c3.463-3.463,8.067-5.371,12.965-5.371
		c4.898,0,9.502,1.907,12.965,5.371C197.404,266.546,199.311,271.15,199.311,276.048z"/>
	<path d="M50.254,353.695l53.072,53.072l14.47-14.47l-53.072-53.072L50.254,353.695z M103.326,395.453l-41.759-41.758l3.157-3.157
		l41.758,41.758L103.326,395.453z"/>
	<path d="M455.849,53.979l-4.664-4.664c3.179-3.231,4.233-8.053,2.68-12.317l-7.154-19.64c-1.196-3.285-3.766-5.854-7.05-7.05
		l-19.64-7.154c-1.299-0.473-2.658-0.713-4.039-0.713c-3.121,0-6.055,1.207-8.278,3.394l-4.664-4.664
		c-1.563-1.562-4.095-1.562-5.657,0c-1.562,1.563-1.562,4.095,0,5.657l4.661,4.661l-7.751,7.751l-4.661-4.661
		c-1.563-1.562-4.095-1.562-5.657,0c-1.562,1.563-1.562,4.095,0,5.657l4.661,4.661l-7.751,7.751l-4.661-4.661
		c-1.563-1.562-4.095-1.562-5.657,0c-1.562,1.563-1.562,4.095,0,5.657l4.661,4.661l-0.371,0.371
		c-4.354,4.355-5.212,10.893-2.593,16.12L233.637,189.149c-33.78-20.951-73.563-19.008-97.692,5.121
		c-6.963,6.963-12.165,15.292-15.46,24.751c-7.279,20.875-26.152,35.927-48.085,38.346c-19.158,2.126-36.09,10.055-48.964,22.929
		c-35.523,35.524-30.042,98.807,12.22,141.068c23.53,23.529,53.569,35.658,81.712,35.656c22.405-0.001,43.611-7.691,59.356-23.436
		c12.874-12.875,20.803-29.806,22.929-48.966c2.427-21.922,17.479-40.796,38.345-48.083c9.479-3.303,17.81-8.501,24.761-15.453
		c24.129-24.13,26.069-63.916,5.112-97.701L402.22,84.759c1.92,0.967,4.048,1.49,6.26,1.49c3.726,0,7.229-1.451,9.863-4.085
		l0.371-0.371l4.661,4.661c0.781,0.781,1.805,1.171,2.829,1.171s2.047-0.391,2.829-1.171c1.562-1.563,1.562-4.095,0-5.657
		l-4.661-4.661l7.751-7.751l4.661,4.661c0.781,0.781,1.805,1.171,2.829,1.171s2.047-0.391,2.829-1.171
		c1.562-1.563,1.562-4.095,0-5.657l-4.661-4.661l7.751-7.751l4.661,4.661c0.781,0.781,1.805,1.171,2.829,1.171
		s2.047-0.391,2.829-1.171C457.411,58.074,457.411,55.542,455.849,53.979z M209.51,247.513c-4.271-4.27-9.33-7.464-14.849-9.449
		L377.407,60.954l18.66,18.659L218.957,262.358C216.973,256.841,213.78,251.783,209.51,247.513z M203.853,253.171
		c6.111,6.11,9.477,14.235,9.477,22.877s-3.365,16.767-9.477,22.877c-6.11,6.111-14.235,9.477-22.877,9.477
		s-16.767-3.365-22.877-9.477c-6.111-6.111-9.477-14.235-9.477-22.877s3.365-16.767,9.477-22.877
		c6.11-6.111,14.235-9.477,22.877-9.477S197.743,247.059,203.853,253.171z M257.102,315.426
		c-6.092,6.092-13.405,10.652-21.739,13.556c-23.759,8.297-40.897,29.79-43.661,54.755c-1.924,17.333-9.06,32.614-20.635,44.19
		c-14.207,14.207-33.367,21.131-53.711,21.13c-26.061-0.002-54.061-11.368-76.042-33.35c-19.054-19.054-30.772-43.121-32.995-67.769
		c-2.199-24.375,5.179-46.389,20.775-61.985c11.575-11.576,26.856-18.711,44.187-20.635c24.977-2.755,46.471-19.894,54.759-43.665
		c2.896-8.313,7.459-15.623,13.563-21.727c21.062-21.062,55.884-22.885,86.092-5.018l-42.332,41.027
		c-1.447-0.156-2.91-0.242-4.386-0.242c-10.779,0-20.913,4.198-28.535,11.819c-7.622,7.622-11.819,17.755-11.819,28.535
		c0,10.779,4.198,20.913,11.819,28.535c7.622,7.622,17.755,11.819,28.535,11.819s20.913-4.198,28.535-11.819
		c7.622-7.622,11.819-17.756,11.819-28.535c0-1.479-0.086-2.943-0.242-4.393l41.024-42.33
		C279.986,259.537,278.166,294.363,257.102,315.426z M408.48,78.248c-1.589,0-3.083-0.619-4.206-1.743l-23.761-23.761
		c-2.317-2.32-2.317-6.092,0.002-8.41l32.778-32.779c0.719-0.718,1.674-1.114,2.69-1.114c0.444,0,0.882,0.078,1.3,0.23l19.64,7.154
		c1.058,0.385,1.885,1.213,2.271,2.271l7.154,19.64c0.504,1.383,0.157,2.949-0.884,3.99l-32.779,32.779
		C411.562,77.629,410.069,78.248,408.48,78.248z"/>
	<path d="M420.146,20.006c-1.562-1.561-4.094-1.562-5.657,0l-25.952,25.952c-1.562,1.562-1.562,4.095,0,5.657
		c0.781,0.781,1.805,1.171,2.829,1.171c1.023,0,2.047-0.391,2.829-1.171l25.952-25.952
		C421.708,24.101,421.708,21.569,420.146,20.006z"/>
	<path d="M437.014,36.875c-1.562-1.561-4.094-1.562-5.657,0l-25.952,25.952c-1.562,1.562-1.562,4.095,0,5.657
		c0.781,0.781,1.805,1.171,2.829,1.171c1.023,0,2.047-0.391,2.829-1.171l25.952-25.952C438.576,40.97,438.576,38.437,437.014,36.875
		z"/>
</g>
</svg>