<?xml version="1.0" encoding="iso-8859-1"?>
<!-- Uploaded to: SVG Repo, www.svgrepo.com, Generator: SVG Repo Mixer Tools -->
<!DOCTYPE svg PUBLIC "-//W3C//DTD SVG 1.1//EN" "http://www.w3.org/Graphics/SVG/1.1/DTD/svg11.dtd">
<svg fill="#000000" height="800px" width="800px" version="1.1" id="Capa_1" xmlns="http://www.w3.org/2000/svg" xmlns:xlink="http://www.w3.org/1999/xlink" 
	 viewBox="0 0 453.499 453.499" xml:space="preserve">
<path d="M301.061,30.108C301.04,30.086,266.993,0.96,266.993,0.96c-1.679-1.437-4.204-1.237-5.64,0.44
	c-1.436,1.68-1.238,4.204,0.441,5.64l25.775,22.037h-56.82V18.538c0-2.209-1.791-4-4-4s-4,1.791-4,4v10.539h-56.82L191.705,7.04
	c1.679-1.436,1.876-3.96,0.44-5.64c-1.435-1.678-3.959-1.875-5.64-0.44c0,0-34.045,29.126-34.067,29.147
	c-0.818,0.732-1.343,1.785-1.343,2.97v61.269c0,2.209,1.791,4,4,4h67.653v237.514l-67.896,78.694
	c-1.443,1.673-1.257,4.198,0.416,5.642c0.755,0.652,1.686,0.972,2.611,0.972c1.123,0,2.239-0.47,3.031-1.387l40.954-47.468
	l20.885,13.683v63.504c0,2.209,1.791,4,4,4s4-1.791,4-4V385.99l20.883-13.681l40.956,47.471c1.444,1.674,3.97,1.859,5.642,0.415
	c1.673-1.442,1.859-3.969,0.416-5.642l-67.897-78.695V98.346h67.654c2.209,0,4-1.791,4-4V33.077
	C302.403,31.893,301.879,30.841,301.061,30.108z M207.136,366.203l15.614-18.097v28.326L207.136,366.203z M246.361,366.199
	l-15.611,10.227v-28.321L246.361,366.199z M237.582,37.077h56.821v48.585L237.582,37.077z M215.917,37.077l-56.821,48.585V37.077
	H215.917z M165.929,90.346l56.82-48.585v48.585H165.929z M230.749,41.76l56.821,48.585h-56.821V41.76z"/>
</svg>